<?xml version="1.0" encoding="utf-8"?>
<!-- Generator: Adobe Illustrator 26.4.1, SVG Export Plug-In . SVG Version: 6.00 Build 0)  -->
<svg version="1.1" id="Capa_1" xmlns="http://www.w3.org/2000/svg" xmlns:xlink="http://www.w3.org/1999/xlink" x="0px" y="0px"
	 viewBox="0 0 50 40" style="enable-background:new 0 0 50 40;" xml:space="preserve">
<style type="text/css">
	.st0{display:none;}
	.st1{display:inline;fill:#AD8CE0;}
	.st2{fill:#AD8CE0;}
</style>
<g class="st0">
	<path class="st1" d="M105.1,46.9H66.4c-3.1,0-5.7-2.5-5.7-5.7v0c0-3.1,2.5-5.7,5.7-5.7h38.7c3.1,0,5.7,2.5,5.7,5.7v0
		C110.8,44.3,108.2,46.9,105.1,46.9z"/>
	<path class="st1" d="M105.1,61.2H66.4c-3.1,0-5.7-2.5-5.7-5.7v0c0-3.1,2.5-5.7,5.7-5.7h38.7c3.1,0,5.7,2.5,5.7,5.7v0
		C110.8,58.7,108.2,61.2,105.1,61.2z"/>
	<path class="st1" d="M105.1,32.6H66.4c-3.1,0-5.7-2.5-5.7-5.7v0c0-3.1,2.5-5.7,5.7-5.7h38.7c3.1,0,5.7,2.5,5.7,5.7v0
		C110.8,30,108.2,32.6,105.1,32.6z"/>
</g>
<path class="st2" d="M46.8,11L9.9,38.2C7.4,40,3.8,39.5,2,37l0,0c-1.9-2.5-1.3-6.1,1.2-7.9L40.1,1.8C42.6,0,46.2,0.5,48,3l0,0
	C49.9,5.6,49.4,9.1,46.8,11z"/>
<path class="st2" d="M39.8,38.4L3.3,10.6c-2.5-1.9-3-5.5-1.1-7.9l0,0c1.9-2.5,5.5-3,7.9-1.1l36.5,27.8c2.5,1.9,3,5.5,1.1,7.9l0,0
	C45.9,39.8,42.3,40.3,39.8,38.4z"/>
</svg>
