<?xml version="1.0" encoding="utf-8"?>
<!-- Generator: Adobe Illustrator 26.4.1, SVG Export Plug-In . SVG Version: 6.00 Build 0)  -->
<svg version="1.1" id="Capa_1" xmlns="http://www.w3.org/2000/svg" xmlns:xlink="http://www.w3.org/1999/xlink" x="0px" y="0px"
	 viewBox="0 0 58 58" style="enable-background:new 0 0 58 58;" xml:space="preserve">
<style type="text/css">
	.st0{fill:#FFFFFF;}
	.st1{display:none;}
	.st2{display:inline;}
	.st3{fill:#020203;}
</style>
<g>
	<g transform="translate(0.000000,320.000000) scale(0.100000,-0.100000)">
		<path class="st0" d="M172.4,3191.2c-57-3.7-90.8-18-121.8-51c-25.8-27.7-37.8-60.3-41.3-112.7c-2.5-36.7-2.5-197.3,0-234.9
			c1.2-16.7,3.9-37.6,6.2-46.4c10.9-43.6,39-79.1,77.4-98.1c35.7-17.5,63-20.4,197.1-20.4c133.6,0,160.6,2.9,198,20.8
			c14.7,7.2,21.1,11.8,36.5,27.5c32.4,32.6,42.5,60.5,46.4,127.2c2.9,46.9,1.2,227.3-2.3,249.8c-3.3,22.1-13.8,52-23.1,66.7
			c-24.2,37.8-63.4,61.9-113.1,69.6C413.1,3192,211.9,3193.6,172.4,3191.2z M433.1,3130.7c21.3-5,35.3-12.4,48.9-25.4
			c14.4-13.8,22.9-29.3,28.3-52c3.3-14.4,3.7-27.7,3.7-143.9c0-139.5-0.2-141-12.4-167.8c-6.8-14.9-25.6-34.1-40.7-41.5
			c-26.4-13.2-30.6-13.6-170.9-13.6s-144.5,0.4-170.9,13.6c-15.1,7.4-33.9,26.6-40.7,41.5c-12.4,26.8-12.4,28.3-12.4,167.8
			c0,141.6,0.2,145.5,13.6,171.9c6.6,13.6,25.2,32.6,38.2,39.2c12,6.2,30.6,11.1,48.3,12.8c8.5,1,68.9,1.4,134.2,1.2
			C401.3,3134,421.2,3133.6,433.1,3130.7z"/>
		<path class="st0" d="M424.7,3090.6c-9.1-4.3-19.4-19.6-20.4-30.3c-2.1-19.6,16.3-37.8,36.1-35.7c10.3,1,23.5,9.5,29.3,19
			c6,9.9,5.6,26.8-0.8,36.3C459.8,3093.3,439.7,3098.1,424.7,3090.6z"/>
		<path class="st0" d="M265.3,3053.5c-31.8-5.2-67.9-26.6-87.7-51.8c-46.9-59.4-42.5-140.8,10.3-193.4c53.1-53.1,137.5-57,195.1-9.1
			c23.5,19.6,42.3,50.8,48.7,80.3c4.5,21.1,2.9,55.7-3.3,74.3c-20.8,62.1-76,101.8-139.7,100.9
			C278.7,3054.5,268.2,3053.9,265.3,3053.5z M329.7,2992.6c19-9.5,34.5-25.2,43.6-44.4c6.2-13.2,6.6-15.3,6.6-37.8
			s-0.4-24.6-6.6-37.8c-9.1-19.2-24.6-34.9-43.8-44.4c-15.1-7.4-15.9-7.6-39.4-7.6c-23.5,0-24.4,0.2-39.4,7.6
			c-19.2,9.5-34.7,25.2-43.8,44.4c-6.2,13.2-6.6,15.3-6.6,37.8s0.4,24.6,6.6,37.6c11.1,23.5,30.1,40.7,55.3,49.7
			c7.8,2.7,15.3,3.5,31.2,3.1C312.6,3000.2,315.3,2999.6,329.7,2992.6z"/>
	</g>
</g>
<g class="st1">
	<g transform="translate(0.000000,320.000000) scale(0.100000,-0.100000)" class="st2">
		<path class="st3" d="M818.9,3676c-3.2-1.5-7.5-5.3-9.5-8.5l-3.8-5.7v-203.1v-203.1l3.8-5.7c8-12,3-11.5,123-11.5H1040v86.4v86.3
			h-27.4H985l-0.3,31.6l-0.3,31.7h27.6h27.8l0.8,34.6c0.5,26.1,1.5,36.6,3.7,43.5c8.8,28.3,24.8,44,53.2,52.5c8,2.5,15.3,3,36.4,2.8
			c14.5-0.2,29.3-0.8,32.7-1.3l6.5-1.2v-27.1v-26.9l-22.3-0.8c-20.3-0.7-22.8-1.2-29.6-5.2c-12.1-7.1-13.8-12.1-13.8-43.5v-26.6
			l32.1-0.5l32.1-0.3l-0.8-4.7c-0.5-2.5-2.5-16.5-4.3-30.9s-3.5-26.8-4-27.1c-0.3-0.3-12.8-0.8-27.8-1l-27.3-0.3l-0.5-82.8
			c-0.2-55.2,0.2-83.8,1.3-85.9c1.7-3.2,4-3.3,60-3.3c55.3,0,58.5,0.2,64.8,3.5c4.8,2.3,7.6,5.3,10,10.3c3,6.8,3.2,14,3.2,206.4
			v199.6l-3.7,7.3c-7.5,14.5,11.1,13.3-216.6,13.3C837.7,3679,824.4,3678.8,818.9,3676z"/>
	</g>
</g>
</svg>
