<?xml version="1.0" encoding="utf-8"?>
<!-- Generator: Adobe Illustrator 26.4.1, SVG Export Plug-In . SVG Version: 6.00 Build 0)  -->
<svg version="1.1" id="Capa_1" xmlns="http://www.w3.org/2000/svg" xmlns:xlink="http://www.w3.org/1999/xlink" x="0px" y="0px"
	 viewBox="0 0 30 30" style="enable-background:new 0 0 30 30;" xml:space="preserve">
<style type="text/css">
	.st0{display:none;}
	.st1{display:inline;}
	.st2{fill:#FFFFFF;}
</style>
<g class="st0">
	<g transform="translate(0.000000,320.000000) scale(0.100000,-0.100000)" class="st1">
		<path class="st2" d="M87.6,3199.3c-30.3-2-48.2-9.5-64.7-27.1c-13.7-14.7-20.1-32-21.9-59.8c-1.3-19.5-1.3-104.8,0-124.7
			c0.7-8.9,2.1-19.9,3.3-24.7c5.8-23.1,20.7-42,41.1-52.1c19-9.3,33.4-10.9,104.7-10.9c70.9,0,85.3,1.5,105.1,11.1
			c7.8,3.8,11.2,6.2,19.4,14.6c17.2,17.3,22.6,32.1,24.7,67.5c1.5,24.9,0.7,120.7-1.2,132.6c-1.8,11.7-7.3,27.6-12.3,35.4
			c-12.8,20.1-33.6,32.9-60.1,36.9C215.4,3199.7,108.5,3200.6,87.6,3199.3z M226,3167.2c11.3-2.6,18.7-6.6,26-13.5
			c7.7-7.3,12.2-15.6,15-27.6c1.8-7.7,2-14.7,2-76.4c0-74.1-0.1-74.9-6.6-89.1c-3.6-7.9-13.6-18.1-21.6-22c-14-7-16.2-7.2-90.8-7.2
			s-76.7,0.2-90.8,7.2c-8,3.9-18,14.1-21.6,22c-6.6,14.2-6.6,15-6.6,89.1c0,75.2,0.1,77.3,7.2,91.3c3.5,7.2,13.4,17.3,20.3,20.8
			c6.4,3.3,16.2,5.9,25.6,6.8c4.5,0.5,36.6,0.8,71.2,0.7C209.1,3168.9,219.6,3168.7,226,3167.2z"/>
		<path class="st2" d="M221.5,3145.9c-4.8-2.3-10.3-10.4-10.9-16.1c-1.1-10.4,8.7-20.1,19.2-19c5.5,0.5,12.5,5,15.6,10.1
			c3.2,5.3,3,14.2-0.4,19.3C240.1,3147.3,229.5,3149.9,221.5,3145.9z"/>
		<path class="st2" d="M136.9,3126.2c-16.9-2.7-36.1-14.1-46.6-27.5c-24.9-31.6-22.6-74.7,5.5-102.7c28.2-28.2,73-30.3,103.6-4.8
			c12.5,10.4,22.5,27,25.9,42.6c2.4,11.2,1.5,29.6-1.8,39.5c-11.1,33-40.3,54-74.2,53.6C144,3126.7,138.4,3126.4,136.9,3126.2z
			 M171.1,3093.8c10.1-5,18.3-13.4,23.1-23.6c3.3-7,3.5-8.1,3.5-20.1c0-11.9-0.2-13-3.5-20.1c-4.8-10.2-13-18.5-23.2-23.6
			c-8-3.9-8.4-4.1-20.9-4.1c-12.5,0-12.9,0.1-20.9,4.1c-10.2,5-18.4,13.4-23.2,23.6c-3.3,7-3.5,8.1-3.5,20.1c0,11.9,0.2,13,3.5,19.9
			c5.9,12.5,16,21.6,29.4,26.4c4.2,1.4,8.1,1.9,16.5,1.6C162,3097.9,163.4,3097.6,171.1,3093.8z"/>
	</g>
</g>
<g>
	<g transform="translate(0.000000,320.000000) scale(0.100000,-0.100000)">
		<path class="st2" d="M9.1,3197.9c-2.2-1-5.1-3.6-6.5-5.8l-2.6-3.8V3050v-138.3l2.6-3.8c5.4-8.2,2-7.8,83.8-7.8h73.2v58.9v58.8
			h-18.7h-18.8l-0.2,21.5l-0.2,21.6h18.8h18.9l0.6,23.5c0.3,17.8,1,24.9,2.5,29.7c6,19.2,16.9,30,36.2,35.8c5.4,1.7,10.4,2,24.8,1.9
			c9.8-0.1,19.9-0.6,22.3-0.9l4.4-0.8v-18.5v-18.3l-15.2-0.6c-13.8-0.5-15.5-0.8-20.1-3.5c-8.3-4.9-9.4-8.3-9.4-29.7v-18.1l21.8-0.3
			l21.8-0.2l-0.6-3.2c-0.3-1.7-1.7-11.2-2.9-21.1c-1.2-9.8-2.4-18.2-2.7-18.5c-0.2-0.2-8.7-0.6-18.9-0.7l-18.6-0.2l-0.3-56.4
			c-0.1-37.6,0.1-57.1,0.9-58.5c1.1-2.2,2.7-2.3,40.9-2.3c37.7,0,39.8,0.1,44.1,2.4c3.3,1.6,5.2,3.6,6.8,7c2,4.6,2.2,9.5,2.2,140.6
			v136l-2.5,5c-5.1,9.8,7.6,9.1-147.5,9.1C21.9,3200,12.8,3199.9,9.1,3197.9z"/>
	</g>
</g>
</svg>
