<?xml version="1.0" encoding="utf-8"?>
<!-- Generator: Adobe Illustrator 26.4.1, SVG Export Plug-In . SVG Version: 6.00 Build 0)  -->
<svg version="1.1" id="Capa_1" xmlns="http://www.w3.org/2000/svg" xmlns:xlink="http://www.w3.org/1999/xlink" x="0px" y="0px"
	 viewBox="0 0 50 40" style="enable-background:new 0 0 50 40;" xml:space="preserve">
<style type="text/css">
	.st0{fill:#AD8CE0;}
</style>
<path class="st0" d="M44.3,25.7H5.7C2.5,25.7,0,23.1,0,20v0c0-3.1,2.5-5.7,5.7-5.7h38.7c3.1,0,5.7,2.5,5.7,5.7v0
	C50,23.1,47.5,25.7,44.3,25.7z"/>
<path class="st0" d="M44.3,40H5.7C2.5,40,0,37.5,0,34.3v0c0-3.1,2.5-5.7,5.7-5.7h38.7c3.1,0,5.7,2.5,5.7,5.7v0
	C50,37.5,47.5,40,44.3,40z"/>
<path class="st0" d="M44.3,11.3H5.7C2.5,11.3,0,8.8,0,5.7v0C0,2.5,2.5,0,5.7,0l38.7,0C47.5,0,50,2.5,50,5.7v0
	C50,8.8,47.5,11.3,44.3,11.3z"/>
</svg>
